<mxfile host="app.diagrams.net" modified="2020-08-27T14:09:40.279Z" agent="5.0 (Windows NT 10.0; Win64; x64) AppleWebKit/537.36 (KHTML, like Gecko) Chrome/84.0.4147.135 Safari/537.36" etag="NXTvY6bT8vpTNwqNmS0i" version="13.6.5" type="github">
  <diagram id="J7UJV4jZGrX6LDNAouO-" name="Page-1">
    <mxGraphModel dx="976" dy="588" grid="1" gridSize="10" guides="1" tooltips="1" connect="1" arrows="1" fold="1" page="1" pageScale="1" pageWidth="827" pageHeight="1169" math="0" shadow="0">
      <root>
        <mxCell id="0" />
        <mxCell id="1" parent="0" />
        <mxCell id="h7iz0ZiPj_REvifZhkZ5-1" value="" style="rounded=0;whiteSpace=wrap;html=1;sketch=0;" vertex="1" parent="1">
          <mxGeometry x="330" y="70" width="120" height="60" as="geometry" />
        </mxCell>
        <mxCell id="h7iz0ZiPj_REvifZhkZ5-2" value="Material App" style="text;html=1;strokeColor=none;fillColor=none;align=center;verticalAlign=middle;whiteSpace=wrap;rounded=0;sketch=0;" vertex="1" parent="1">
          <mxGeometry x="370" y="80" width="40" height="20" as="geometry" />
        </mxCell>
        <mxCell id="h7iz0ZiPj_REvifZhkZ5-3" value="" style="rounded=0;whiteSpace=wrap;html=1;sketch=0;" vertex="1" parent="1">
          <mxGeometry x="330" y="200" width="120" height="60" as="geometry" />
        </mxCell>
        <mxCell id="h7iz0ZiPj_REvifZhkZ5-4" value="" style="endArrow=classic;html=1;exitX=0.5;exitY=1;exitDx=0;exitDy=0;entryX=0.5;entryY=0;entryDx=0;entryDy=0;" edge="1" parent="1" source="h7iz0ZiPj_REvifZhkZ5-1" target="h7iz0ZiPj_REvifZhkZ5-3">
          <mxGeometry width="50" height="50" relative="1" as="geometry">
            <mxPoint x="390" y="320" as="sourcePoint" />
            <mxPoint x="440" y="270" as="targetPoint" />
          </mxGeometry>
        </mxCell>
        <mxCell id="h7iz0ZiPj_REvifZhkZ5-5" value="Scaffold" style="text;html=1;strokeColor=none;fillColor=none;align=center;verticalAlign=middle;whiteSpace=wrap;rounded=0;sketch=0;" vertex="1" parent="1">
          <mxGeometry x="370" y="220" width="40" height="20" as="geometry" />
        </mxCell>
        <mxCell id="h7iz0ZiPj_REvifZhkZ5-8" value="" style="rounded=0;whiteSpace=wrap;html=1;sketch=0;" vertex="1" parent="1">
          <mxGeometry x="40" y="320" width="120" height="60" as="geometry" />
        </mxCell>
        <mxCell id="h7iz0ZiPj_REvifZhkZ5-10" value="" style="endArrow=classic;html=1;exitX=0;exitY=0.5;exitDx=0;exitDy=0;" edge="1" parent="1" source="h7iz0ZiPj_REvifZhkZ5-3">
          <mxGeometry width="50" height="50" relative="1" as="geometry">
            <mxPoint x="390" y="320" as="sourcePoint" />
            <mxPoint x="90" y="310" as="targetPoint" />
            <Array as="points">
              <mxPoint x="90" y="230" />
            </Array>
          </mxGeometry>
        </mxCell>
        <mxCell id="h7iz0ZiPj_REvifZhkZ5-35" style="edgeStyle=orthogonalEdgeStyle;rounded=1;sketch=0;orthogonalLoop=1;jettySize=auto;html=1;entryX=0.423;entryY=-0.05;entryDx=0;entryDy=0;entryPerimeter=0;" edge="1" parent="1" source="h7iz0ZiPj_REvifZhkZ5-11" target="h7iz0ZiPj_REvifZhkZ5-32">
          <mxGeometry relative="1" as="geometry">
            <Array as="points">
              <mxPoint x="400" y="430" />
            </Array>
          </mxGeometry>
        </mxCell>
        <mxCell id="h7iz0ZiPj_REvifZhkZ5-36" style="edgeStyle=orthogonalEdgeStyle;rounded=1;sketch=0;orthogonalLoop=1;jettySize=auto;html=1;" edge="1" parent="1" source="h7iz0ZiPj_REvifZhkZ5-11">
          <mxGeometry relative="1" as="geometry">
            <mxPoint x="240" y="460" as="targetPoint" />
          </mxGeometry>
        </mxCell>
        <mxCell id="h7iz0ZiPj_REvifZhkZ5-11" value="" style="rounded=0;whiteSpace=wrap;html=1;sketch=0;" vertex="1" parent="1">
          <mxGeometry x="340" y="330" width="120" height="60" as="geometry" />
        </mxCell>
        <mxCell id="h7iz0ZiPj_REvifZhkZ5-29" style="edgeStyle=orthogonalEdgeStyle;rounded=1;sketch=0;orthogonalLoop=1;jettySize=auto;html=1;exitX=0.5;exitY=1;exitDx=0;exitDy=0;entryX=0.5;entryY=0;entryDx=0;entryDy=0;" edge="1" parent="1" source="h7iz0ZiPj_REvifZhkZ5-12" target="h7iz0ZiPj_REvifZhkZ5-25">
          <mxGeometry relative="1" as="geometry" />
        </mxCell>
        <mxCell id="h7iz0ZiPj_REvifZhkZ5-12" value="" style="rounded=0;whiteSpace=wrap;html=1;sketch=0;" vertex="1" parent="1">
          <mxGeometry x="620" y="330" width="120" height="60" as="geometry" />
        </mxCell>
        <mxCell id="h7iz0ZiPj_REvifZhkZ5-16" value="AppBar" style="text;html=1;strokeColor=none;fillColor=none;align=center;verticalAlign=middle;whiteSpace=wrap;rounded=0;sketch=0;" vertex="1" parent="1">
          <mxGeometry x="390" y="340" width="40" height="20" as="geometry" />
        </mxCell>
        <mxCell id="h7iz0ZiPj_REvifZhkZ5-18" value="" style="endArrow=classic;html=1;entryX=0.62;entryY=-0.063;entryDx=0;entryDy=0;entryPerimeter=0;exitX=1.023;exitY=0.397;exitDx=0;exitDy=0;exitPerimeter=0;" edge="1" parent="1" source="h7iz0ZiPj_REvifZhkZ5-3" target="h7iz0ZiPj_REvifZhkZ5-12">
          <mxGeometry width="50" height="50" relative="1" as="geometry">
            <mxPoint x="390" y="320" as="sourcePoint" />
            <mxPoint x="440" y="270" as="targetPoint" />
            <Array as="points">
              <mxPoint x="640" y="224" />
              <mxPoint x="694" y="224" />
            </Array>
          </mxGeometry>
        </mxCell>
        <mxCell id="h7iz0ZiPj_REvifZhkZ5-19" value="" style="endArrow=classic;html=1;" edge="1" parent="1">
          <mxGeometry width="50" height="50" relative="1" as="geometry">
            <mxPoint x="410" y="270" as="sourcePoint" />
            <mxPoint x="410" y="326" as="targetPoint" />
          </mxGeometry>
        </mxCell>
        <mxCell id="h7iz0ZiPj_REvifZhkZ5-23" value="Color" style="text;html=1;strokeColor=none;fillColor=none;align=center;verticalAlign=middle;whiteSpace=wrap;rounded=0;sketch=0;" vertex="1" parent="1">
          <mxGeometry x="70" y="340" width="40" height="20" as="geometry" />
        </mxCell>
        <mxCell id="h7iz0ZiPj_REvifZhkZ5-24" value="Center" style="text;html=1;strokeColor=none;fillColor=none;align=center;verticalAlign=middle;whiteSpace=wrap;rounded=0;sketch=0;" vertex="1" parent="1">
          <mxGeometry x="670" y="355" width="40" height="10" as="geometry" />
        </mxCell>
        <mxCell id="h7iz0ZiPj_REvifZhkZ5-30" style="edgeStyle=orthogonalEdgeStyle;rounded=1;sketch=0;orthogonalLoop=1;jettySize=auto;html=1;entryX=0.5;entryY=0;entryDx=0;entryDy=0;" edge="1" parent="1" source="h7iz0ZiPj_REvifZhkZ5-25" target="h7iz0ZiPj_REvifZhkZ5-27">
          <mxGeometry relative="1" as="geometry" />
        </mxCell>
        <mxCell id="h7iz0ZiPj_REvifZhkZ5-25" value="" style="rounded=0;whiteSpace=wrap;html=1;sketch=0;" vertex="1" parent="1">
          <mxGeometry x="620" y="470" width="120" height="60" as="geometry" />
        </mxCell>
        <mxCell id="h7iz0ZiPj_REvifZhkZ5-26" value="Image" style="text;html=1;strokeColor=none;fillColor=none;align=center;verticalAlign=middle;whiteSpace=wrap;rounded=0;sketch=0;" vertex="1" parent="1">
          <mxGeometry x="660" y="490" width="40" height="20" as="geometry" />
        </mxCell>
        <mxCell id="h7iz0ZiPj_REvifZhkZ5-27" value="" style="rounded=0;whiteSpace=wrap;html=1;sketch=0;" vertex="1" parent="1">
          <mxGeometry x="620" y="600" width="120" height="60" as="geometry" />
        </mxCell>
        <mxCell id="h7iz0ZiPj_REvifZhkZ5-28" value="NetworkImage" style="text;html=1;strokeColor=none;fillColor=none;align=center;verticalAlign=middle;whiteSpace=wrap;rounded=0;sketch=0;" vertex="1" parent="1">
          <mxGeometry x="660" y="620" width="40" height="20" as="geometry" />
        </mxCell>
        <mxCell id="h7iz0ZiPj_REvifZhkZ5-31" value="" style="rounded=0;whiteSpace=wrap;html=1;sketch=0;" vertex="1" parent="1">
          <mxGeometry x="180" y="470" width="120" height="60" as="geometry" />
        </mxCell>
        <mxCell id="h7iz0ZiPj_REvifZhkZ5-32" value="" style="rounded=0;whiteSpace=wrap;html=1;sketch=0;" vertex="1" parent="1">
          <mxGeometry x="350" y="470" width="120" height="60" as="geometry" />
        </mxCell>
        <mxCell id="h7iz0ZiPj_REvifZhkZ5-33" value="Text" style="text;html=1;strokeColor=none;fillColor=none;align=center;verticalAlign=middle;whiteSpace=wrap;rounded=0;sketch=0;" vertex="1" parent="1">
          <mxGeometry x="390" y="490" width="40" height="20" as="geometry" />
        </mxCell>
        <mxCell id="h7iz0ZiPj_REvifZhkZ5-34" value="Color" style="text;html=1;strokeColor=none;fillColor=none;align=center;verticalAlign=middle;whiteSpace=wrap;rounded=0;sketch=0;" vertex="1" parent="1">
          <mxGeometry x="220" y="490" width="40" height="20" as="geometry" />
        </mxCell>
      </root>
    </mxGraphModel>
  </diagram>
</mxfile>
